<svg width="89" height="14" viewBox="0 0 89 14" fill="none" xmlns="http://www.w3.org/2000/svg">
<path d="M9.368 6.466C10.1 6.67 10.676 7.042 11.096 7.582C11.516 8.11 11.726 8.782 11.726 9.598C11.726 10.69 11.312 11.53 10.484 12.118C9.668 12.706 8.474 13 6.902 13H0.89V0.399999H6.542C7.982 0.399999 9.092 0.687999 9.872 1.264C10.664 1.84 11.06 2.638 11.06 3.658C11.06 4.318 10.904 4.888 10.592 5.368C10.292 5.848 9.884 6.214 9.368 6.466ZM2.69 1.858V5.89H6.38C7.304 5.89 8.012 5.722 8.504 5.386C9.008 5.038 9.26 4.534 9.26 3.874C9.26 3.214 9.008 2.716 8.504 2.38C8.012 2.032 7.304 1.858 6.38 1.858H2.69ZM6.83 11.542C7.85 11.542 8.618 11.374 9.134 11.038C9.65 10.702 9.908 10.174 9.908 9.454C9.908 8.05 8.882 7.348 6.83 7.348H2.69V11.542H6.83ZM22.001 13.144C20.729 13.144 19.583 12.868 18.563 12.316C17.543 11.752 16.739 10.978 16.151 9.994C15.575 9.01 15.287 7.912 15.287 6.7C15.287 5.488 15.575 4.39 16.151 3.406C16.739 2.422 17.543 1.654 18.563 1.102C19.583 0.538 20.729 0.256 22.001 0.256C23.261 0.256 24.401 0.538 25.421 1.102C26.441 1.654 27.239 2.422 27.815 3.406C28.391 4.378 28.679 5.476 28.679 6.7C28.679 7.924 28.391 9.028 27.815 10.012C27.239 10.984 26.441 11.752 25.421 12.316C24.401 12.868 23.261 13.144 22.001 13.144ZM22.001 11.542C22.925 11.542 23.753 11.332 24.485 10.912C25.229 10.492 25.811 9.916 26.231 9.184C26.663 8.44 26.879 7.612 26.879 6.7C26.879 5.788 26.663 4.966 26.231 4.234C25.811 3.49 25.229 2.908 24.485 2.488C23.753 2.068 22.925 1.858 22.001 1.858C21.077 1.858 20.237 2.068 19.481 2.488C18.737 2.908 18.149 3.49 17.717 4.234C17.297 4.966 17.087 5.788 17.087 6.7C17.087 7.612 17.297 8.44 17.717 9.184C18.149 9.916 18.737 10.492 19.481 10.912C20.237 11.332 21.077 11.542 22.001 11.542ZM38.9182 13.144C37.6462 13.144 36.5002 12.868 35.4802 12.316C34.4602 11.752 33.6562 10.978 33.0682 9.994C32.4922 9.01 32.2042 7.912 32.2042 6.7C32.2042 5.488 32.4922 4.39 33.0682 3.406C33.6562 2.422 34.4602 1.654 35.4802 1.102C36.5002 0.538 37.6462 0.256 38.9182 0.256C40.1782 0.256 41.3182 0.538 42.3382 1.102C43.3582 1.654 44.1562 2.422 44.7322 3.406C45.3082 4.378 45.5962 5.476 45.5962 6.7C45.5962 7.924 45.3082 9.028 44.7322 10.012C44.1562 10.984 43.3582 11.752 42.3382 12.316C41.3182 12.868 40.1782 13.144 38.9182 13.144ZM38.9182 11.542C39.8422 11.542 40.6702 11.332 41.4022 10.912C42.1462 10.492 42.7282 9.916 43.1482 9.184C43.5802 8.44 43.7962 7.612 43.7962 6.7C43.7962 5.788 43.5802 4.966 43.1482 4.234C42.7282 3.49 42.1462 2.908 41.4022 2.488C40.6702 2.068 39.8422 1.858 38.9182 1.858C37.9942 1.858 37.1542 2.068 36.3982 2.488C35.6542 2.908 35.0662 3.49 34.6342 4.234C34.2142 4.966 34.0042 5.788 34.0042 6.7C34.0042 7.612 34.2142 8.44 34.6342 9.184C35.0662 9.916 35.6542 10.492 36.3982 10.912C37.1542 11.332 37.9942 11.542 38.9182 11.542ZM54.2514 7.402L51.9474 9.742V13H50.1474V0.399999H51.9474V7.438L58.7874 0.399999H60.8394L55.4574 6.07L61.1814 13H59.0754L54.2514 7.402ZM73.9772 9.904H71.5832V13H69.8372V9.904H62.8352V8.644L69.2792 0.399999H71.2232L65.0492 8.356H69.8912V5.62H71.5832V8.356H73.9772V9.904ZM83.1022 13.144C81.4222 13.144 80.1142 12.664 79.1782 11.704C78.2422 10.744 77.7742 9.364 77.7742 7.564V0.399999H79.5742V7.492C79.5742 10.192 80.7562 11.542 83.1202 11.542C84.2722 11.542 85.1542 11.212 85.7662 10.552C86.3782 9.88 86.6842 8.86 86.6842 7.492V0.399999H88.4302V7.564C88.4302 9.376 87.9622 10.762 87.0262 11.722C86.0902 12.67 84.7822 13.144 83.1022 13.144Z" fill="black"/>
</svg>
